<svg width="20" height="20" viewBox="0 0 20 20" fill="none" xmlns="http://www.w3.org/2000/svg">
    <g clip-path="url(#clip0_2002_515)">
        <path d="M6.87514 10.5396L13.8986 16.7193C13.9797 16.7911 14.0782 16.8406 14.1843 16.8629C14.2904 16.8852 14.4004 16.8795 14.5037 16.8465C14.6069 16.8134 14.6998 16.754 14.7731 16.6742C14.8464 16.5943 14.8978 16.4968 14.922 16.3911L17.8595 3.56301C17.8841 3.45253 17.8783 3.33744 17.8426 3.23002C17.807 3.1226 17.7428 3.02689 17.657 2.95309C17.5711 2.8793 17.4669 2.8302 17.3553 2.81103C17.2438 2.79186 17.1291 2.80335 17.0236 2.84426L2.60171 8.50832C2.02358 8.73489 2.10171 9.57864 2.71108 9.70364L6.87514 10.5396Z" stroke="#fff" stroke-width="1.35135" stroke-linecap="round" stroke-linejoin="round"/>
        <path d="M6.87503 10.5391L17.5078 2.85938" stroke="#fff" stroke-width="1.35135" stroke-linecap="round" stroke-linejoin="round"/>
        <path d="M10.3828 13.6249L7.94534 16.0624C7.85838 16.1507 7.74713 16.2111 7.62574 16.2361C7.50434 16.261 7.37827 16.2493 7.26355 16.2024C7.14883 16.1555 7.05064 16.0755 6.98146 15.9727C6.91228 15.8699 6.87524 15.7488 6.87503 15.6249V10.5389" stroke="#fff" stroke-width="1.35135" stroke-linecap="round" stroke-linejoin="round"/>
    </g>
    <defs>
        <clipPath id="clip0_2002_515">
            <rect width="20" height="20" fill="white"/>
        </clipPath>
    </defs>
</svg>
